<svg width="64" height="64" viewBox="0 0 64 64" fill="none" xmlns="http://www.w3.org/2000/svg">
  <rect width="64" height="64" rx="16" fill="#FFFBEB"/>
  <rect x="12" y="18" width="40" height="28" rx="6" fill="#A16207"/>
  <circle cx="32" cy="32" r="7" fill="#FEF3C7"/>
  <path d="M30 29.5C30 28.6 30.8 27.9 32 27.9C33.1 27.9 33.9 28.4 34.2 29.3L36.8 28.5C36.2 26.7 34.7 25.5 32.9 25.2V23.8H31.1V25.2C28.7 25.5 27.2 27.1 27.2 29.5C27.2 31.9 29 33 31.5 33.5C33.2 33.9 34.1 34.1 34.1 35.1C34.1 36 33.3 36.7 32 36.7C30.5 36.7 29.7 35.9 29.4 34.8L26.8 35.6C27.3 37.7 28.9 39.1 31.1 39.4V40.8H32.9V39.3C35.2 39 36.9 37.4 36.9 35C36.9 32.7 35.2 31.6 32.6 31.1C30.9 30.7 30 30.5 30 29.5Z" fill="#A16207"/>
</svg>
